# xmcd CD database file
#
# Track frame offsets:
#	150
#	23705
#	50826
#	72850
#	92078
#	111291
#	131245
#	161192
#
# Disc length: 4440 seconds
#
# Revision: 3
# Processed by: cddbd v1.5.2PL0 Copyright (c) Steve Scherf et al.
# Submitted via: CDex 1.51
#
DISCID=72115608
DTITLE=周傳雄 - Dubbing - Disc 2
DYEAR=2003
DGENRE=Pop
TTITLE0=陪著我一直到世界的盡頭
TTITLE1=黃昏[亞洲慶功版]
TTITLE2=我的心太亂
TTITLE3=暖風
TTITLE4=記事本[亞洲慶功版]
TTITLE5=二分之一的愛情
TTITLE6=出賣
TTITLE7=DATA
EXTD=YEAR: 2003
EXTT0=
EXTT1=
EXTT2=
EXTT3=
EXTT4=
EXTT5=
EXTT6=
EXTT7=
PLAYORDER=
